<?xml version="1.0" standalone="no"?>
<!DOCTYPE svg PUBLIC "-//W3C//DTD SVG 20010904//EN"
 "http://www.w3.org/TR/2001/REC-SVG-20010904/DTD/svg10.dtd">
<svg version="1.0" xmlns="http://www.w3.org/2000/svg"
 width="16.000000pt" height="16.000000pt" viewBox="0 0 16.000000 16.000000"
 preserveAspectRatio="xMidYMid meet">
<metadata>
Created by potrace 1.11, written by Peter Selinger 2001-2013
</metadata>
<g transform="translate(0.000000,16.000000) scale(0.005145,-0.005145)"
fill="#000000" stroke="none">
<path d="M1400 2964 c-8 -1 -49 -8 -90 -14 -70 -12 -210 -50 -255 -70 -11 -5
-51 -23 -88 -39 -83 -37 -172 -89 -252 -150 -74 -55 -255 -231 -255 -248 0 -7
-4 -13 -9 -13 -11 0 -118 -164 -155 -238 -15 -29 -24 -58 -20 -64 4 -6 3 -8
-4 -5 -12 8 -55 -110 -45 -126 4 -6 1 -7 -7 -2 -10 6 -12 3 -8 -13 4 -12 3
-20 -1 -17 -5 2 -16 -33 -26 -78 -9 -45 -21 -97 -25 -114 -6 -21 -5 -33 2 -33
7 0 7 -4 -1 -13 -8 -10 -7 -17 2 -27 9 -10 9 -11 0 -6 -9 5 -13 -2 -14 -26 0
-18 -2 -45 -3 -60 -1 -16 3 -28 9 -28 6 0 7 -3 0 -8 -15 -11 -19 -46 -4 -36 8
5 10 3 4 -6 -8 -13 -8 -108 0 -149 2 -14 10 -28 17 -33 7 -4 8 -8 3 -8 -6 0
-9 -17 -7 -40 2 -22 7 -38 11 -36 3 2 7 -10 8 -27 1 -18 3 -42 4 -54 1 -13 6
-23 11 -23 6 0 8 -7 5 -15 -4 -8 -2 -17 3 -20 4 -3 11 1 13 7 4 9 6 10 6 1 1
-6 -3 -14 -8 -17 -8 -5 25 -102 39 -116 7 -7 32 -73 33 -87 0 -7 5 -13 10 -13
5 0 6 -7 3 -16 -3 -8 -2 -12 4 -9 12 7 31 -35 22 -49 -3 -5 0 -6 5 -3 6 4 18
-9 27 -28 9 -19 22 -35 28 -35 6 0 9 -3 5 -6 -3 -3 5 -18 18 -32 13 -14 21
-30 18 -35 -4 -6 -1 -7 7 -2 10 6 12 4 6 -11 -4 -10 -4 -15 0 -11 9 9 35 -13
29 -24 -3 -4 3 -6 14 -4 11 2 27 -6 38 -18 l18 -22 -23 19 c-19 17 -22 17 -22
3 0 -10 5 -17 11 -17 5 0 7 -5 3 -12 -4 -6 -3 -9 2 -6 5 3 23 -8 39 -24 23
-22 26 -27 10 -22 -16 4 -17 4 -5 -4 8 -6 18 -8 24 -5 5 4 7 -1 3 -10 -4 -12
-2 -14 10 -10 12 5 14 3 8 -7 -6 -9 -4 -11 4 -5 8 4 24 -5 43 -24 17 -17 37
-31 45 -31 13 0 13 -2 2 -17 -8 -9 -9 -14 -2 -10 6 4 14 1 16 -5 4 -10 6 -10
6 0 1 10 4 10 15 0 8 -7 11 -17 8 -22 -3 -5 2 -7 11 -3 11 4 17 1 17 -8 0 -9
6 -12 15 -9 17 7 48 -14 40 -27 -9 -13 40 -40 60 -33 13 6 16 4 10 -5 -6 -10
-2 -11 15 -6 18 6 22 4 17 -8 -3 -9 2 -21 11 -29 15 -12 16 -11 3 5 -12 16
-11 17 10 13 13 -3 27 -5 31 -5 4 -1 5 -9 1 -18 -5 -14 -3 -15 7 -6 10 9 18 5
37 -15 14 -15 20 -19 13 -9 -11 15 -10 17 8 14 12 -2 25 -7 29 -12 5 -4 3 -5
-3 -2 -6 3 -11 0 -11 -7 0 -7 6 -13 13 -13 7 0 11 4 8 9 -3 4 2 8 11 8 9 0 14
-4 11 -9 -9 -14 16 -20 37 -9 10 5 15 14 11 21 -4 7 -3 8 1 4 12 -10 15 -38 4
-32 -5 4 -6 -1 -2 -11 5 -15 7 -15 15 0 7 12 13 14 29 6 14 -8 19 -7 19 1 0 7
3 9 6 6 4 -4 1 -13 -5 -21 -10 -12 -9 -15 8 -13 11 0 17 5 15 9 -6 10 20 11
30 1 4 -4 19 -8 34 -9 72 -4 68 -2 46 -20 -10 -8 -13 -13 -6 -9 7 4 21 1 30
-7 15 -12 16 -11 4 4 -9 11 -10 18 -2 23 5 3 10 2 10 -3 0 -6 7 -13 16 -16 8
-3 13 -2 9 3 -3 5 9 8 26 7 17 -1 35 -9 40 -17 6 -11 9 -8 9 11 l1 25 15 -25
c11 -18 14 -19 9 -5 -5 16 -4 18 6 8 18 -18 29 -16 23 4 -3 10 2 7 10 -7 15
-25 15 -25 16 -2 0 12 4 22 9 22 6 0 8 -9 6 -19 -2 -14 1 -18 11 -14 7 3 12 9
9 13 -3 5 0 12 6 16 8 4 9 3 5 -4 -4 -7 -2 -12 4 -12 6 0 9 -4 6 -9 -7 -11 21
-8 31 4 4 4 2 5 -4 1 -7 -4 -13 -3 -13 2 0 5 13 9 29 8 16 0 27 -5 24 -9 -3
-5 5 -3 18 4 26 14 61 20 54 9 -2 -4 2 -7 10 -7 8 0 12 4 9 9 -8 13 11 9 25
-4 10 -11 11 -9 5 7 -7 18 -6 19 10 6 9 -8 16 -10 15 -5 -4 23 2 26 17 8 8
-10 13 -14 10 -7 -4 6 -2 14 4 18 5 3 10 1 10 -6 0 -7 6 -5 14 6 15 20 52 14
41 -7 -4 -7 4 -1 18 14 19 20 27 24 37 15 9 -9 11 -9 7 -1 -4 7 0 15 9 18 8 3
13 2 10 -2 -2 -4 5 -8 17 -9 12 0 16 1 10 4 -7 3 -13 9 -13 14 0 4 7 5 17 2
12 -5 14 -3 8 7 -5 8 -3 11 6 8 8 -3 13 -11 11 -17 -3 -16 3 -14 19 6 10 11
10 14 2 9 -7 -4 -13 -5 -13 -2 0 3 10 10 21 17 12 6 19 7 16 2 -3 -5 4 -9 16
-10 12 0 16 1 10 4 -22 8 -14 21 10 16 18 -4 19 -3 7 6 -13 9 -12 11 5 12 11
1 26 2 33 2 7 -1 11 1 8 5 -7 6 24 31 39 32 6 0 3 -5 -5 -10 -9 -6 -10 -10 -3
-10 7 0 17 9 23 20 6 11 19 20 29 20 16 0 32 19 35 42 1 3 5 10 10 15 6 5 6 2
1 -6 -6 -11 -4 -13 8 -8 10 4 15 1 13 -6 -1 -7 -1 -9 1 -4 3 4 9 5 14 2 5 -4
6 2 2 11 -5 13 -3 16 10 11 12 -4 14 -2 10 10 -4 10 -2 14 5 9 6 -3 14 3 18
16 6 20 7 21 19 4 17 -22 27 0 12 29 -8 16 -7 18 4 8 16 -16 33 -17 23 -1 -5
8 -2 9 10 5 9 -4 15 -3 12 1 -8 13 23 52 40 52 8 0 14 6 14 14 0 17 39 48 51
40 4 -2 11 1 15 7 4 8 3 9 -4 5 -7 -4 -12 -2 -12 3 0 10 14 15 32 12 4 0 5 5
2 13 -3 8 8 23 25 36 17 12 31 30 31 40 0 10 11 27 24 38 20 15 22 22 13 31
-9 10 -8 11 6 5 12 -4 17 -2 15 7 -2 8 3 13 10 11 8 -1 11 2 7 8 -7 11 19 53
27 44 3 -3 5 3 5 13 -1 10 3 17 9 16 7 -1 10 6 7 16 -3 10 0 22 6 25 6 4 11
16 11 27 0 11 7 22 15 25 8 4 13 10 10 14 -3 5 -1 11 5 15 6 4 8 11 5 16 -4 5
2 9 12 10 10 0 13 3 7 5 -7 3 -10 14 -7 24 3 11 10 17 16 13 6 -3 7 -1 3 6 -4
6 -3 17 2 24 11 13 12 17 12 48 0 11 4 18 9 15 5 -3 9 0 8 7 -1 40 4 78 11 74
4 -3 8 7 8 21 1 24 5 54 20 142 5 33 5 265 -1 313 -37 324 -176 609 -409 843
-278 277 -623 419 -1010 413 -72 -1 -138 -3 -146 -5z m1275 -2273 c3 -5 2 -12
-3 -15 -5 -3 -9 1 -9 9 0 17 3 19 12 6z m-2104 -118 c13 -16 12 -17 -3 -4 -17
13 -22 21 -14 21 2 0 10 -8 17 -17z m40 -40 c13 -16 12 -17 -3 -4 -17 13 -22
21 -14 21 2 0 10 -8 17 -17z m240 -180 c13 -16 12 -17 -3 -4 -10 7 -18 15 -18
17 0 8 8 3 21 -13z m28 -39 c14 -12 -19 -1 -35 12 -18 14 -18 14 6 3 14 -6 27
-13 29 -15z"/>
<path d="M2705 720 c-3 -6 1 -7 9 -4 18 7 21 14 7 14 -6 0 -13 -4 -16 -10z"/>
<path d="M2565 560 c-3 -6 1 -7 9 -4 18 7 21 14 7 14 -6 0 -13 -4 -16 -10z"/>
<path d="M2515 510 c-3 -5 -1 -10 4 -10 6 0 11 5 11 10 0 6 -2 10 -4 10 -3 0
-8 -4 -11 -10z"/>
<path d="M795 350 c3 -5 8 -10 11 -10 2 0 4 5 4 10 0 6 -5 10 -11 10 -5 0 -7
-4 -4 -10z"/>
<path d="M1261 154 c0 -11 3 -14 6 -6 3 7 2 16 -1 19 -3 4 -6 -2 -5 -13z"/>
<path d="M1293 146 c-3 -6 -3 -8 2 -4 4 4 13 3 20 -2 8 -7 12 -5 12 3 0 16
-25 18 -34 3z"/>
<path d="M1736 137 c3 -10 9 -15 12 -12 3 3 0 11 -7 18 -10 9 -11 8 -5 -6z"/>
<path d="M1436 132 c-3 -4 4 -9 15 -9 23 -2 25 3 4 10 -8 4 -16 3 -19 -1z"/>
<path d="M1670 131 c0 -6 4 -13 10 -16 6 -3 7 1 4 9 -7 18 -14 21 -14 7z"/>
</g>
</svg>
